<svg width="800" height="500" viewBox="0 0 800 500" xmlns="http://www.w3.org/2000/svg">
  <rect width="800" height="500" rx="30" fill="#0F1711"/>
  <rect x="60" y="80" width="680" height="340" rx="24" fill="#132117" stroke="#2E4E33" stroke-width="2"/>
  <rect x="90" y="120" width="220" height="140" rx="18" fill="#1D3423"/>
  <rect x="340" y="120" width="370" height="220" rx="20" fill="#18301D"/>
  <path d="M120 240C150 200 180 190 220 210" stroke="#B6FF3B" stroke-width="8" stroke-linecap="round"/>
  <path d="M160 260C200 220 240 220 290 260" stroke="#6DDC4B" stroke-width="8" stroke-linecap="round"/>
  <path d="M370 300C420 240 470 230 530 240" stroke="#B6FF3B" stroke-width="10" stroke-linecap="round"/>
  <path d="M395 280C440 220 490 210 560 240" stroke="#7BD85A" stroke-width="10" stroke-linecap="round"/>
  <rect x="90" y="290" width="280" height="90" rx="16" fill="#162A1B"/>
  <circle cx="130" cy="335" r="20" fill="#B6FF3B" fill-opacity="0.9"/>
  <rect x="170" y="315" width="150" height="12" rx="6" fill="#B6FF3B" fill-opacity="0.8"/>
  <rect x="170" y="338" width="100" height="10" rx="5" fill="#5BAA3A"/>
  <path d="M640 110C648 90 666 74 688 72C710 70 730 84 736 104" stroke="#B6FF3B" stroke-opacity="0.8" stroke-width="6" stroke-linecap="round"/>
  <path d="M648 120C662 104 682 96 700 98" stroke="#6DDC4B" stroke-width="5" stroke-linecap="round"/>
</svg>