<svg width="800" height="500" viewBox="0 0 800 500" xmlns="http://www.w3.org/2000/svg">
  <rect width="800" height="500" rx="30" fill="#120F1A"/>
  <rect x="85" y="90" width="630" height="320" rx="26" fill="#1D1730" stroke="#4C3C6D" stroke-width="2"/>
  <rect x="180" y="150" width="440" height="220" rx="22" fill="#231B35"/>
  <rect x="225" y="210" width="170" height="110" rx="18" fill="#3A2D5A"/>
  <rect x="430" y="210" width="120" height="110" rx="18" fill="#2D2247"/>
  <rect x="245" y="185" width="130" height="18" rx="9" fill="#B6FF3B" fill-opacity="0.85"/>
  <path d="M470 205C470 185 486 170 506 170H532C552 170 568 185 568 205V224H470V205Z" fill="#B6FF3B" fill-opacity="0.5"/>
  <rect x="472" y="224" width="94" height="70" rx="12" fill="#B6FF3B" fill-opacity="0.75"/>
  <path d="M250 310L280 280L310 310" stroke="#B6FF3B" stroke-width="10" stroke-linecap="round" stroke-linejoin="round"/>
  <circle cx="620" cy="180" r="44" fill="#B6FF3B" fill-opacity="0.16"/>
  <circle cx="620" cy="180" r="24" fill="#B6FF3B" fill-opacity="0.3"/>
</svg>